<?xml version="1.0" encoding="UTF-8" standalone="no"?>
<!-- Created with Inkscape (http://www.inkscape.org/) -->

<svg
   width="39.412998mm"
   height="55.633999mm"
   viewBox="20 9 39.412998 55.633999"
   version="1.1"
   id="svg1"
   inkscape:version="1.4.3 (fcd0343856, 2026-01-01)"
   sodipodi:docname="single_request.svg"
   xmlns:inkscape="http://www.inkscape.org/namespaces/inkscape"
   xmlns:sodipodi="http://sodipodi.sourceforge.net/DTD/sodipodi-0.dtd"
   xmlns="http://www.w3.org/2000/svg"
   xmlns:svg="http://www.w3.org/2000/svg">
  <sodipodi:namedview
     id="namedview1"
     pagecolor="#ffffff"
     bordercolor="#000000"
     borderopacity="0.25"
     inkscape:showpageshadow="2"
     inkscape:pageopacity="0.0"
     inkscape:pagecheckerboard="0"
     inkscape:deskcolor="#d1d1d1"
     inkscape:document-units="mm"
     inkscape:zoom="2.9304259"
     inkscape:cx="85.653079"
     inkscape:cy="134.62207"
     inkscape:window-width="2498"
     inkscape:window-height="1371"
     inkscape:window-x="0"
     inkscape:window-y="0"
     inkscape:window-maximized="1"
     inkscape:current-layer="layer1" />
  <defs
     id="defs1" />
  <g
     inkscape:label="Layer 1"
     inkscape:groupmode="layer"
     id="layer1"
     transform="translate(-17.877094,-5.0561476)">
    <rect
       style="fill:#000000;fill-opacity:0.836974;stroke:none;stroke-width:0.743241;stroke-dasharray:0.743241, 0.743241;stroke-dashoffset:0.445944"
       id="rect1"
       width="85.412788"
       height="79.634323"
       x="17.877094"
       y="5.0561476"
       sodipodi:insensitive="true" />
    <g
       id="g1"
       transform="matrix(1.4056788,0,0,1.4056788,-34.946423,-15.114745)">
      <path
         fill="#ffffff"
         d="m 57.656813,28.210725 v 0 c 0,-0.584502 0.47384,-1.058333 1.05834,-1.058333 v 0 c 0.28068,0 0.54988,0.1115 0.74835,0.309977 0.19847,0.198478 0.30998,0.467673 0.30998,0.748356 v 0 c 0,0.584501 -0.47383,1.058333 -1.05833,1.058333 v 0 c -0.5845,0 -1.05834,-0.473832 -1.05834,-1.058333 z"
         fill-rule="evenodd"
         id="path173"
         style="stroke-width:0.264583" />
      <path
         stroke="#ffaa08"
         stroke-width="0.264583"
         stroke-linejoin="round"
         stroke-linecap="butt"
         d="m 57.656813,28.210725 v 0 c 0,-0.584502 0.47384,-1.058333 1.05834,-1.058333 v 0 c 0.28068,0 0.54988,0.1115 0.74835,0.309977 0.19847,0.198478 0.30998,0.467673 0.30998,0.748356 v 0 c 0,0.584501 -0.47383,1.058333 -1.05833,1.058333 v 0 c -0.5845,0 -1.05834,-0.473832 -1.05834,-1.058333 z"
         fill-rule="evenodd"
         id="path174" />
      <path
         fill="#ffffff"
         d="m 62.736813,28.210725 v 0 c 0,-0.584502 0.47383,-1.058333 1.05833,-1.058333 v 0 c 0.28069,0 0.54988,0.1115 0.74836,0.309977 0.19847,0.198478 0.30997,0.467673 0.30997,0.748356 v 0 c 0,0.584501 -0.47383,1.058333 -1.05833,1.058333 v 0 c -0.5845,0 -1.05833,-0.473832 -1.05833,-1.058333 z"
         fill-rule="evenodd"
         id="path175"
         style="stroke-width:0.264583" />
      <path
         stroke="#ffaa08"
         stroke-width="0.264583"
         stroke-linejoin="round"
         stroke-linecap="butt"
         d="m 62.736813,28.210725 v 0 c 0,-0.584502 0.47383,-1.058333 1.05833,-1.058333 v 0 c 0.28069,0 0.54988,0.1115 0.74836,0.309977 0.19847,0.198478 0.30997,0.467673 0.30997,0.748356 v 0 c 0,0.584501 -0.47383,1.058333 -1.05833,1.058333 v 0 c -0.5845,0 -1.05833,-0.473832 -1.05833,-1.058333 z"
         fill-rule="evenodd"
         id="path176" />
      <path
         fill="#ffffff"
         d="m 67.816813,28.210725 v 0 c 0,-0.584502 0.47383,-1.058333 1.05833,-1.058333 v 0 c 0.28069,0 0.54988,0.1115 0.74836,0.309977 0.19848,0.198478 0.30998,0.467673 0.30998,0.748356 v 0 c 0,0.584501 -0.47383,1.058333 -1.05834,1.058333 v 0 c -0.5845,0 -1.05833,-0.473832 -1.05833,-1.058333 z"
         fill-rule="evenodd"
         id="path177"
         style="stroke-width:0.264583" />
      <path
         stroke="#ffaa08"
         stroke-width="0.264583"
         stroke-linejoin="round"
         stroke-linecap="butt"
         d="m 67.816813,28.210725 v 0 c 0,-0.584502 0.47383,-1.058333 1.05833,-1.058333 v 0 c 0.28069,0 0.54988,0.1115 0.74836,0.309977 0.19848,0.198478 0.30998,0.467673 0.30998,0.748356 v 0 c 0,0.584501 -0.47383,1.058333 -1.05834,1.058333 v 0 c -0.5845,0 -1.05833,-0.473832 -1.05833,-1.058333 z"
         fill-rule="evenodd"
         id="path178" />
      <path
         fill="#ffffff"
         d="m 72.896813,28.210725 v 0 c 0,-0.584502 0.47383,-1.058333 1.05833,-1.058333 v 0 c 0.28069,0 0.54988,0.1115 0.74835,0.309977 0.19848,0.198478 0.30998,0.467673 0.30998,0.748356 v 0 c 0,0.584501 -0.47382,1.058333 -1.05833,1.058333 v 0 c -0.5845,0 -1.05833,-0.473832 -1.05833,-1.058333 z"
         fill-rule="evenodd"
         id="path179"
         style="stroke-width:0.264583" />
      <path
         stroke="#ffaa08"
         stroke-width="0.264583"
         stroke-linejoin="round"
         stroke-linecap="butt"
         d="m 72.896813,28.210725 v 0 c 0,-0.584502 0.47383,-1.058333 1.05833,-1.058333 v 0 c 0.28069,0 0.54988,0.1115 0.74835,0.309977 0.19848,0.198478 0.30998,0.467673 0.30998,0.748356 v 0 c 0,0.584501 -0.47382,1.058333 -1.05833,1.058333 v 0 c -0.5845,0 -1.05833,-0.473832 -1.05833,-1.058333 z"
         fill-rule="evenodd"
         id="path180" />
      <path
         fill="#ffffff"
         d="m 60.196813,33.290725 v 0 c 0,-0.584502 0.47383,-1.058334 1.05833,-1.058334 v 0 c 0.28069,0 0.54989,0.111501 0.74835,0.309978 0.19848,0.198478 0.30998,0.467665 0.30998,0.748356 v 0 c 0,0.584501 -0.47382,1.058333 -1.05833,1.058333 v 0 c -0.5845,0 -1.05833,-0.473832 -1.05833,-1.058333 z"
         fill-rule="evenodd"
         id="path181"
         style="stroke-width:0.264583" />
      <path
         stroke="#ffaa08"
         stroke-width="0.264583"
         stroke-linejoin="round"
         stroke-linecap="butt"
         d="m 60.196813,33.290725 v 0 c 0,-0.584502 0.47383,-1.058334 1.05833,-1.058334 v 0 c 0.28069,0 0.54989,0.111501 0.74835,0.309978 0.19848,0.198478 0.30998,0.467665 0.30998,0.748356 v 0 c 0,0.584501 -0.47382,1.058333 -1.05833,1.058333 v 0 c -0.5845,0 -1.05833,-0.473832 -1.05833,-1.058333 z"
         fill-rule="evenodd"
         id="path182" />
      <path
         fill="#ffffff"
         d="m 65.276813,33.290725 v 0 c 0,-0.584502 0.47383,-1.058334 1.05833,-1.058334 v 0 c 0.28069,0 0.54988,0.111501 0.74836,0.309978 0.19847,0.198478 0.30997,0.467665 0.30997,0.748356 v 0 c 0,0.584501 -0.47383,1.058333 -1.05833,1.058333 v 0 c -0.5845,0 -1.05833,-0.473832 -1.05833,-1.058333 z"
         fill-rule="evenodd"
         id="path183"
         style="stroke-width:0.264583" />
      <path
         stroke="#ffaa08"
         stroke-width="0.264583"
         stroke-linejoin="round"
         stroke-linecap="butt"
         d="m 65.276813,33.290725 v 0 c 0,-0.584502 0.47383,-1.058334 1.05833,-1.058334 v 0 c 0.28069,0 0.54988,0.111501 0.74836,0.309978 0.19847,0.198478 0.30997,0.467665 0.30997,0.748356 v 0 c 0,0.584501 -0.47383,1.058333 -1.05833,1.058333 v 0 c -0.5845,0 -1.05833,-0.473832 -1.05833,-1.058333 z"
         fill-rule="evenodd"
         id="path184" />
      <path
         fill="#ffffff"
         d="m 70.356813,33.290725 v 0 c 0,-0.584502 0.47384,-1.058334 1.05834,-1.058334 v 0 c 0.28068,0 0.54987,0.111501 0.74835,0.309978 0.19847,0.198478 0.30998,0.467665 0.30998,0.748356 v 0 c 0,0.584501 -0.47383,1.058333 -1.05833,1.058333 v 0 c -0.5845,0 -1.05834,-0.473832 -1.05834,-1.058333 z"
         fill-rule="evenodd"
         id="path185"
         style="stroke-width:0.264583" />
      <path
         stroke="#ffaa08"
         stroke-width="0.264583"
         stroke-linejoin="round"
         stroke-linecap="butt"
         d="m 70.356813,33.290725 v 0 c 0,-0.584502 0.47384,-1.058334 1.05834,-1.058334 v 0 c 0.28068,0 0.54987,0.111501 0.74835,0.309978 0.19847,0.198478 0.30998,0.467665 0.30998,0.748356 v 0 c 0,0.584501 -0.47383,1.058333 -1.05833,1.058333 v 0 c -0.5845,0 -1.05834,-0.473832 -1.05834,-1.058333 z"
         fill-rule="evenodd"
         id="path186" />
      <path
         fill="#ffffff"
         d="m 75.436813,33.290725 v 0 c 0,-0.584502 0.47383,-1.058334 1.05833,-1.058334 v 0 c 0.28069,0 0.54988,0.111501 0.74836,0.309978 0.19847,0.198478 0.30997,0.467665 0.30997,0.748356 v 0 c 0,0.584501 -0.47383,1.058333 -1.05833,1.058333 v 0 c -0.5845,0 -1.05833,-0.473832 -1.05833,-1.058333 z"
         fill-rule="evenodd"
         id="path187"
         style="stroke-width:0.264583" />
      <path
         stroke="#ffaa08"
         stroke-width="0.264583"
         stroke-linejoin="round"
         stroke-linecap="butt"
         d="m 75.436813,33.290725 v 0 c 0,-0.584502 0.47383,-1.058334 1.05833,-1.058334 v 0 c 0.28069,0 0.54988,0.111501 0.74836,0.309978 0.19847,0.198478 0.30997,0.467665 0.30997,0.748356 v 0 c 0,0.584501 -0.47383,1.058333 -1.05833,1.058333 v 0 c -0.5845,0 -1.05833,-0.473832 -1.05833,-1.058333 z"
         fill-rule="evenodd"
         id="path188" />
      <path
         fill="#ffffff"
         d="m 55.116813,33.290725 v 0 c 0,-0.584502 0.47383,-1.058334 1.05833,-1.058334 v 0 c 0.28069,0 0.54988,0.111501 0.74836,0.309978 0.19848,0.198478 0.30998,0.467665 0.30998,0.748356 v 0 c 0,0.584501 -0.47383,1.058333 -1.05834,1.058333 v 0 c -0.5845,0 -1.05833,-0.473832 -1.05833,-1.058333 z"
         fill-rule="evenodd"
         id="path189"
         style="stroke-width:0.264583" />
      <path
         stroke="#ffaa08"
         stroke-width="0.264583"
         stroke-linejoin="round"
         stroke-linecap="butt"
         d="m 55.116813,33.290725 v 0 c 0,-0.584502 0.47383,-1.058334 1.05833,-1.058334 v 0 c 0.28069,0 0.54988,0.111501 0.74836,0.309978 0.19848,0.198478 0.30998,0.467665 0.30998,0.748356 v 0 c 0,0.584501 -0.47383,1.058333 -1.05834,1.058333 v 0 c -0.5845,0 -1.05833,-0.473832 -1.05833,-1.058333 z"
         fill-rule="evenodd"
         id="path190" />
      <path
         fill="#ffffff"
         d="m 57.656813,38.370725 v 0 c 0,-0.584502 0.47384,-1.058334 1.05834,-1.058334 v 0 c 0.28068,0 0.54988,0.111509 0.74835,0.309978 0.19847,0.198477 0.30998,0.467672 0.30998,0.748356 v 0 c 0,0.584501 -0.47383,1.058333 -1.05833,1.058333 v 0 c -0.5845,0 -1.05834,-0.473832 -1.05834,-1.058333 z"
         fill-rule="evenodd"
         id="path191"
         style="stroke-width:0.264583" />
      <path
         stroke="#ffaa08"
         stroke-width="0.264583"
         stroke-linejoin="round"
         stroke-linecap="butt"
         d="m 57.656813,38.370725 v 0 c 0,-0.584502 0.47384,-1.058334 1.05834,-1.058334 v 0 c 0.28068,0 0.54988,0.111509 0.74835,0.309978 0.19847,0.198477 0.30998,0.467672 0.30998,0.748356 v 0 c 0,0.584501 -0.47383,1.058333 -1.05833,1.058333 v 0 c -0.5845,0 -1.05834,-0.473832 -1.05834,-1.058333 z"
         fill-rule="evenodd"
         id="path192" />
      <path
         fill="#ffffff"
         d="m 62.736813,38.370725 v 0 c 0,-0.584502 0.47383,-1.058334 1.05833,-1.058334 v 0 c 0.28069,0 0.54988,0.111509 0.74836,0.309978 0.19847,0.198477 0.30997,0.467672 0.30997,0.748356 v 0 c 0,0.584501 -0.47383,1.058333 -1.05833,1.058333 v 0 c -0.5845,0 -1.05833,-0.473832 -1.05833,-1.058333 z"
         fill-rule="evenodd"
         id="path193"
         style="stroke-width:0.264583" />
      <path
         stroke="#ffaa08"
         stroke-width="0.264583"
         stroke-linejoin="round"
         stroke-linecap="butt"
         d="m 62.736813,38.370725 v 0 c 0,-0.584502 0.47383,-1.058334 1.05833,-1.058334 v 0 c 0.28069,0 0.54988,0.111509 0.74836,0.309978 0.19847,0.198477 0.30997,0.467672 0.30997,0.748356 v 0 c 0,0.584501 -0.47383,1.058333 -1.05833,1.058333 v 0 c -0.5845,0 -1.05833,-0.473832 -1.05833,-1.058333 z"
         fill-rule="evenodd"
         id="path194" />
      <path
         fill="#ffffff"
         d="m 67.816813,38.370725 v 0 c 0,-0.584502 0.47383,-1.058334 1.05833,-1.058334 v 0 c 0.28069,0 0.54988,0.111509 0.74836,0.309978 0.19848,0.198477 0.30998,0.467672 0.30998,0.748356 v 0 c 0,0.584501 -0.47383,1.058333 -1.05834,1.058333 v 0 c -0.5845,0 -1.05833,-0.473832 -1.05833,-1.058333 z"
         fill-rule="evenodd"
         id="path195"
         style="stroke-width:0.264583" />
      <path
         stroke="#ffaa08"
         stroke-width="0.264583"
         stroke-linejoin="round"
         stroke-linecap="butt"
         d="m 67.816813,38.370725 v 0 c 0,-0.584502 0.47383,-1.058334 1.05833,-1.058334 v 0 c 0.28069,0 0.54988,0.111509 0.74836,0.309978 0.19848,0.198477 0.30998,0.467672 0.30998,0.748356 v 0 c 0,0.584501 -0.47383,1.058333 -1.05834,1.058333 v 0 c -0.5845,0 -1.05833,-0.473832 -1.05833,-1.058333 z"
         fill-rule="evenodd"
         id="path196" />
      <path
         fill="#ffffff"
         d="m 72.896813,38.370725 v 0 c 0,-0.584502 0.47383,-1.058334 1.05833,-1.058334 v 0 c 0.28069,0 0.54988,0.111509 0.74835,0.309978 0.19848,0.198477 0.30998,0.467672 0.30998,0.748356 v 0 c 0,0.584501 -0.47382,1.058333 -1.05833,1.058333 v 0 c -0.5845,0 -1.05833,-0.473832 -1.05833,-1.058333 z"
         fill-rule="evenodd"
         id="path197"
         style="stroke-width:0.264583" />
      <path
         stroke="#ffaa08"
         stroke-width="0.264583"
         stroke-linejoin="round"
         stroke-linecap="butt"
         d="m 72.896813,38.370725 v 0 c 0,-0.584502 0.47383,-1.058334 1.05833,-1.058334 v 0 c 0.28069,0 0.54988,0.111509 0.74835,0.309978 0.19848,0.198477 0.30998,0.467672 0.30998,0.748356 v 0 c 0,0.584501 -0.47382,1.058333 -1.05833,1.058333 v 0 c -0.5845,0 -1.05833,-0.473832 -1.05833,-1.058333 z"
         fill-rule="evenodd"
         id="path198" />
      <path
         fill="#000000"
         fill-opacity="0"
         d="m 59.463503,28.95908 6.125,3.583332"
         fill-rule="evenodd"
         id="path199"
         style="stroke-width:0.264583" />
      <path
         stroke="#ffaa08"
         stroke-width="0.264583"
         stroke-linejoin="round"
         stroke-linecap="butt"
         d="m 59.463503,28.95908 6.125,3.583332"
         fill-rule="evenodd"
         id="path200" />
      <path
         fill="#000000"
         fill-opacity="0"
         d="m 59.463503,28.95908 11.2,3.583332"
         fill-rule="evenodd"
         id="path201"
         style="stroke-width:0.264583" />
      <path
         stroke="#ffaa08"
         stroke-width="0.264583"
         stroke-linejoin="round"
         stroke-linecap="butt"
         d="m 59.463503,28.95908 11.2,3.583332"
         fill-rule="evenodd"
         id="path202" />
      <path
         fill="#000000"
         fill-opacity="0"
         d="m 58.715153,29.269058 -1.79167,3.275002"
         fill-rule="evenodd"
         id="path203"
         style="stroke-width:0.264583" />
      <path
         stroke="#ffaa08"
         stroke-width="0.264583"
         stroke-linejoin="round"
         stroke-linecap="butt"
         d="m 58.715153,29.269058 -1.79167,3.275002"
         fill-rule="evenodd"
         id="path204" />
      <path
         fill="#000000"
         fill-opacity="0"
         d="m 69.623503,28.95908 6.125,3.583332"
         fill-rule="evenodd"
         id="path205"
         style="stroke-width:0.264583" />
      <path
         stroke="#ffaa08"
         stroke-width="0.264583"
         stroke-linejoin="round"
         stroke-linecap="butt"
         d="m 69.623503,28.95908 6.125,3.583332"
         fill-rule="evenodd"
         id="path206" />
      <path
         fill="#000000"
         fill-opacity="0"
         d="m 68.126793,28.95908 -6.125,3.583332"
         fill-rule="evenodd"
         id="path207"
         style="stroke-width:0.264583" />
      <path
         stroke="#ffaa08"
         stroke-width="0.264583"
         stroke-linejoin="round"
         stroke-linecap="butt"
         d="m 68.126793,28.95908 -6.125,3.583332"
         fill-rule="evenodd"
         id="path208" />
      <path
         fill="#000000"
         fill-opacity="0"
         d="m 74.703493,28.95908 1.79168,3.275002"
         fill-rule="evenodd"
         id="path209"
         style="stroke-width:0.264583" />
      <path
         stroke="#ffaa08"
         stroke-width="0.264583"
         stroke-linejoin="round"
         stroke-linecap="butt"
         d="m 74.703493,28.95908 1.79168,3.275002"
         fill-rule="evenodd"
         id="path210" />
      <path
         fill="#000000"
         fill-opacity="0"
         d="m 73.206793,28.95908 -1.79167,3.275002"
         fill-rule="evenodd"
         id="path211"
         style="stroke-width:0.264583" />
      <path
         stroke="#ffaa08"
         stroke-width="0.264583"
         stroke-linejoin="round"
         stroke-linecap="butt"
         d="m 73.206793,28.95908 -1.79167,3.275002"
         fill-rule="evenodd"
         id="path212" />
      <path
         fill="#000000"
         fill-opacity="0"
         d="m 64.235143,29.115724 2.1,3.11667"
         fill-rule="evenodd"
         id="path213"
         style="stroke-width:0.264583" />
      <path
         stroke="#ffaa08"
         stroke-width="0.264583"
         stroke-linejoin="round"
         stroke-linecap="butt"
         d="m 64.235143,29.115724 2.1,3.11667"
         fill-rule="evenodd"
         id="path214" />
      <path
         fill="#000000"
         fill-opacity="0"
         d="m 56.923503,32.542372 10.89167,-4.333335"
         fill-rule="evenodd"
         id="path215"
         style="stroke-width:0.264583" />
      <path
         stroke="#ffaa08"
         stroke-width="0.264583"
         stroke-linejoin="round"
         stroke-linecap="butt"
         d="m 56.923503,32.542372 10.89167,-4.333335"
         fill-rule="evenodd"
         id="path216" />
      <path
         fill="#000000"
         fill-opacity="0"
         d="m 56.175143,34.349058 1.79167,3.274994"
         fill-rule="evenodd"
         id="path217"
         style="stroke-width:0.264583" />
      <path
         stroke="#ffaa08"
         stroke-width="0.264583"
         stroke-linejoin="round"
         stroke-linecap="butt"
         d="m 56.175143,34.349058 1.79167,3.274994"
         fill-rule="evenodd"
         id="path218" />
      <path
         fill="#000000"
         fill-opacity="0"
         d="m 56.923503,34.039083 6.125,3.583331"
         fill-rule="evenodd"
         id="path219"
         style="stroke-width:0.264583" />
      <path
         stroke="#ffaa08"
         stroke-width="0.264583"
         stroke-linejoin="round"
         stroke-linecap="butt"
         d="m 56.923503,34.039083 6.125,3.583331"
         fill-rule="evenodd"
         id="path220" />
      <path
         fill="#000000"
         fill-opacity="0"
         d="m 56.923503,34.039083 16.28333,3.583331"
         fill-rule="evenodd"
         id="path221"
         style="stroke-width:0.264583" />
      <path
         stroke="#ffaa08"
         stroke-width="0.264583"
         stroke-linejoin="round"
         stroke-linecap="butt"
         d="m 56.923503,34.039083 16.28333,3.583331"
         fill-rule="evenodd"
         id="path222" />
      <path
         fill="#000000"
         fill-opacity="0"
         d="m 60.506793,34.039083 -1.79167,3.274994"
         fill-rule="evenodd"
         id="path223"
         style="stroke-width:0.264583" />
      <path
         stroke="#ffaa08"
         stroke-width="0.264583"
         stroke-linejoin="round"
         stroke-linecap="butt"
         d="m 60.506793,34.039083 -1.79167,3.274994"
         fill-rule="evenodd"
         id="path224" />
      <path
         fill="#000000"
         fill-opacity="0"
         d="m 61.255143,34.349058 1.79167,3.274994"
         fill-rule="evenodd"
         id="path225"
         style="stroke-width:0.264583" />
      <path
         stroke="#ffaa08"
         stroke-width="0.264583"
         stroke-linejoin="round"
         stroke-linecap="butt"
         d="m 61.255143,34.349058 1.79167,3.274994"
         fill-rule="evenodd"
         id="path226" />
      <path
         fill="#000000"
         fill-opacity="0"
         d="m 62.003493,34.039083 11.20001,3.583331"
         fill-rule="evenodd"
         id="path227"
         style="stroke-width:0.264583" />
      <path
         stroke="#ffaa08"
         stroke-width="0.264583"
         stroke-linejoin="round"
         stroke-linecap="butt"
         d="m 62.003493,34.039083 11.20001,3.583331"
         fill-rule="evenodd"
         id="path228" />
      <path
         fill="#000000"
         fill-opacity="0"
         d="m 67.083503,34.039083 6.125,3.583331"
         fill-rule="evenodd"
         id="path229"
         style="stroke-width:0.264583" />
      <path
         stroke="#ffaa08"
         stroke-width="0.264583"
         stroke-linejoin="round"
         stroke-linecap="butt"
         d="m 67.083503,34.039083 6.125,3.583331"
         fill-rule="evenodd"
         id="path230" />
      <path
         fill="#000000"
         fill-opacity="0"
         d="m 66.335143,34.349058 1.79167,3.274994"
         fill-rule="evenodd"
         id="path231"
         style="stroke-width:0.264583" />
      <path
         stroke="#ffaa08"
         stroke-width="0.264583"
         stroke-linejoin="round"
         stroke-linecap="butt"
         d="m 66.335143,34.349058 1.79167,3.274994"
         fill-rule="evenodd"
         id="path232" />
      <path
         fill="#000000"
         fill-opacity="0"
         d="m 75.746793,34.039083 -1.04166,3.583331"
         fill-rule="evenodd"
         id="path233"
         style="stroke-width:0.264583" />
      <path
         stroke="#ffaa08"
         stroke-width="0.264583"
         stroke-linejoin="round"
         stroke-linecap="butt"
         d="m 75.746793,34.039083 -1.04166,3.583331"
         fill-rule="evenodd"
         id="path234" />
      <path
         fill="#000000"
         fill-opacity="0"
         d="m 75.436813,33.290725 -10.89166,4.333327"
         fill-rule="evenodd"
         id="path235"
         style="stroke-width:0.264583" />
      <path
         stroke="#ffaa08"
         stroke-width="0.264583"
         stroke-linejoin="round"
         stroke-linecap="butt"
         d="m 75.436813,33.290725 -10.89166,4.333327"
         fill-rule="evenodd"
         id="path236" />
      <path
         fill="#000000"
         fill-opacity="0"
         d="m 72.163503,34.039083 1.79167,3.274994"
         fill-rule="evenodd"
         id="path237"
         style="stroke-width:0.264583" />
      <path
         stroke="#ffaa08"
         stroke-width="0.264583"
         stroke-linejoin="round"
         stroke-linecap="butt"
         d="m 72.163503,34.039083 1.79167,3.274994"
         fill-rule="evenodd"
         id="path238" />
      <path
         fill="#000000"
         fill-opacity="0"
         d="m 70.666793,34.039083 -1.04167,3.583331"
         fill-rule="evenodd"
         id="path239"
         style="stroke-width:0.264583" />
      <path
         stroke="#ffaa08"
         stroke-width="0.264583"
         stroke-linejoin="round"
         stroke-linecap="butt"
         d="m 70.666793,34.039083 -1.04167,3.583331"
         fill-rule="evenodd"
         id="path240" />
      <path
         fill="#000000"
         fill-opacity="0"
         d="m 58.707653,39.544861 0.0833,9.291664"
         fill-rule="evenodd"
         id="path241"
         style="stroke-width:0.264583" />
      <path
         stroke="#ffaa08"
         stroke-width="0.529167"
         stroke-linejoin="round"
         stroke-linecap="butt"
         d="m 58.707653,39.544861 0.0671,7.478241"
         fill-rule="evenodd"
         id="path242" />
      <path
         fill="#ffaa08"
         stroke="#ffaa08"
         stroke-width="0.529167"
         stroke-linecap="butt"
         d="m 58.774713,47.023094 -0.6004,-0.589724 0.60973,1.629592 0.5804,-1.640268 z"
         fill-rule="evenodd"
         id="path243" />
      <path
         fill="#000000"
         fill-opacity="0"
         d="m 63.752813,39.46678 0.0833,9.291664"
         fill-rule="evenodd"
         id="path244"
         style="stroke-width:0.264583" />
      <path
         stroke="#ffaa08"
         stroke-width="0.529167"
         stroke-linejoin="round"
         stroke-linecap="butt"
         d="m 63.752813,39.466772 0.0671,7.478249"
         fill-rule="evenodd"
         id="path245" />
      <path
         fill="#ffaa08"
         stroke="#ffaa08"
         stroke-width="0.529167"
         stroke-linecap="butt"
         d="m 63.819883,46.945013 -0.60041,-0.589732 0.60974,1.6296 0.58039,-1.640276 z"
         fill-rule="evenodd"
         id="path246" />
      <path
         fill="#000000"
         fill-opacity="0"
         d="m 68.832813,39.46678 0.0833,9.291664"
         fill-rule="evenodd"
         id="path247"
         style="stroke-width:0.264583" />
      <path
         stroke="#ffaa08"
         stroke-width="0.529167"
         stroke-linejoin="round"
         stroke-linecap="butt"
         d="m 68.832813,39.466772 0.0671,7.478249"
         fill-rule="evenodd"
         id="path248" />
      <path
         fill="#ffaa08"
         stroke="#ffaa08"
         stroke-width="0.529167"
         stroke-linecap="butt"
         d="m 68.899883,46.945013 -0.60041,-0.589732 0.60973,1.6296 0.58041,-1.640276 z"
         fill-rule="evenodd"
         id="path249" />
      <path
         fill="#000000"
         fill-opacity="0"
         d="m 73.912813,39.46678 0.0833,9.291664"
         fill-rule="evenodd"
         id="path250"
         style="stroke-width:0.264583" />
      <path
         stroke="#ffaa08"
         stroke-width="0.529167"
         stroke-linejoin="round"
         stroke-linecap="butt"
         d="m 73.912813,39.466772 0.0671,7.478249"
         fill-rule="evenodd"
         id="path251" />
      <path
         fill="#ffaa08"
         stroke="#ffaa08"
         stroke-width="0.529167"
         stroke-linecap="butt"
         d="m 73.979883,46.945013 -0.60041,-0.589732 0.60974,1.6296 0.5804,-1.640276 z"
         fill-rule="evenodd"
         id="path252" />
    </g>
    <g
       id="g5"
       transform="matrix(0.56844659,0,0,0.56844659,25.878251,8.8222353)">
      <text
         xml:space="preserve"
         style="font-weight:600;font-size:3.52777px;line-height:1.3;font-family:'Fira Sans';-inkscape-font-specification:'Fira Sans Semi-Bold';writing-mode:lr-tb;direction:ltr;fill:#80ff80;fill-opacity:0.924479;stroke:none;stroke-width:0.799999;stroke-dasharray:0.799999, 0.799999;stroke-dashoffset:0.479999"
         x="33.919498"
         y="15.754649"
         id="text1"><tspan
           sodipodi:role="line"
           id="tspan1"
           style="fill:#49ff49;fill-opacity:1;stroke:none;stroke-width:0.8"
           x="33.919498"
           y="15.754649">&quot;Add standard payment options</tspan><tspan
           sodipodi:role="line"
           style="fill:#80ff80;fill-opacity:0.924479;stroke:none;stroke-width:0.8"
           x="33.919498"
           y="20.34075"
           id="tspan2"><tspan
   style="fill:#49ff49;fill-opacity:1"
   id="tspan4">to my website:</tspan> <tspan
   style="fill:#10d2f9;fill-opacity:1"
   id="tspan3">index.html</tspan><tspan
   style="fill:#52ff52;fill-opacity:0.924479"
   id="tspan5">&quot;</tspan></tspan></text>
      <rect
         style="fill:none;fill-opacity:0.924479;stroke:#49ff49;stroke-width:0.235392;stroke-linecap:round;stroke-linejoin:round;stroke-dasharray:none;stroke-dashoffset:0.479999;stroke-opacity:1"
         id="rect5"
         width="55.732048"
         height="12.334109"
         x="31.979771"
         y="10.852299"
         ry="1.9093081"
         rx="1.909308" />
    </g>
    <text
       xml:space="preserve"
       style="font-weight:600;font-size:2.41279px;line-height:1.3;font-family:'Fira Sans';-inkscape-font-specification:'Fira Sans Semi-Bold';writing-mode:lr-tb;direction:ltr;fill:#ffaa08;fill-opacity:1;stroke:none;stroke-width:0.547153;stroke-dasharray:0.547153, 0.547153;stroke-dashoffset:0.328292"
       x="-48.150414"
       y="41.726803"
       id="text1-2"
       transform="rotate(-90)"><tspan
         sodipodi:role="line"
         style="font-style:normal;font-variant:normal;font-weight:normal;font-stretch:normal;font-size:2.41279px;font-family:'GFS Complutum';-inkscape-font-specification:'GFS Complutum, Normal';font-variant-ligatures:normal;font-variant-caps:normal;font-variant-numeric:normal;font-variant-east-asian:normal;fill:#ffaa08;fill-opacity:1;stroke:none;stroke-width:0.547154"
         x="-48.150414"
         y="41.726803"
         id="tspan2-0">MIMIR.PREDICTOR</tspan></text>
    <text
       xml:space="preserve"
       style="font-weight:600;font-size:2.41279px;line-height:1.3;font-family:'Fira Sans';-inkscape-font-specification:'Fira Sans Semi-Bold';writing-mode:lr-tb;direction:ltr;fill:#49ff49;fill-opacity:1;stroke:none;stroke-width:0.547153;stroke-dasharray:0.547153, 0.547153;stroke-dashoffset:0.328292"
       x="-22.004925"
       y="41.299721"
       id="text1-2-0"
       transform="rotate(-90)"><tspan
         sodipodi:role="line"
         style="font-style:normal;font-variant:normal;font-weight:normal;font-stretch:normal;font-size:2.41279px;font-family:'GFS Complutum';-inkscape-font-specification:'GFS Complutum, Normal';font-variant-ligatures:normal;font-variant-caps:normal;font-variant-numeric:normal;font-variant-east-asian:normal;fill:#49ff49;fill-opacity:1;stroke:none;stroke-width:0.547154"
         x="-22.004925"
         y="41.299721"
         id="tspan2-0-2">input</tspan></text>
    <path
       sodipodi:type="star"
       style="fill:#ffff00;fill-opacity:1;stroke:#ffaa08;stroke-width:0.2;stroke-linecap:round;stroke-linejoin:round;stroke-dasharray:none;stroke-dashoffset:1.81417;stroke-opacity:1"
       id="path6"
       inkscape:flatsided="false"
       sodipodi:sides="5"
       sodipodi:cx="38.369949"
       sodipodi:cy="57.906063"
       sodipodi:r1="1.6276965"
       sodipodi:r2="0.81384826"
       sodipodi:arg1="0.52359878"
       sodipodi:arg2="1.1519173"
       inkscape:rounded="0"
       inkscape:randomized="0"
       d="m 39.779576,58.719911 -1.078605,-0.07036 -0.669439,0.848641 -0.26639,-1.047557 -1.013972,-0.37443 0.913966,-0.577065 0.04277,-1.080051 0.831252,0.690911 1.040406,-0.293077 -0.400225,1.004071 z"
       inkscape:transform-center-x="0.10457664"
       inkscape:transform-center-y="0.05257634"
       transform="translate(5.1713242,-0.41989826)" />
    <text
       xml:space="preserve"
       style="font-style:normal;font-variant:normal;font-weight:normal;font-stretch:normal;font-size:1.94369px;line-height:1.3;font-family:'GFS Complutum';-inkscape-font-specification:'GFS Complutum, Normal';font-variant-ligatures:normal;font-variant-caps:normal;font-variant-numeric:normal;font-variant-east-asian:normal;writing-mode:lr-tb;direction:ltr;fill:#ffff00;fill-opacity:1;stroke:none;stroke-width:0.161116;stroke-linecap:round;stroke-linejoin:round;stroke-dasharray:none;stroke-dashoffset:1.81417;stroke-opacity:1"
       x="46.03117"
       y="57.609859"
       id="text6"><tspan
         sodipodi:role="line"
         id="tspan6"
         style="font-style:normal;font-variant:normal;font-weight:normal;font-stretch:normal;font-family:'Fira Sans';-inkscape-font-specification:'Fira Sans';stroke:none;stroke-width:0.161116;stroke-opacity:1"
         x="46.03117"
         y="57.609859">Best agent: HTMLLama-4</tspan><tspan
         sodipodi:role="line"
         style="font-style:normal;font-variant:normal;font-weight:normal;font-stretch:normal;font-family:'Fira Sans';-inkscape-font-specification:'Fira Sans';stroke:none;stroke-width:0.161116;stroke-opacity:1"
         x="46.03117"
         y="60.311344"
         id="tspan8">    Exp. Correctness: 95%</tspan><tspan
         sodipodi:role="line"
         style="font-style:normal;font-variant:normal;font-weight:normal;font-stretch:normal;font-family:'Fira Sans';-inkscape-font-specification:'Fira Sans';stroke:none;stroke-width:0.161116;stroke-opacity:1"
         x="46.03117"
         y="63.012829"
         id="tspan10">    Cost: 80¢</tspan><tspan
         sodipodi:role="line"
         style="font-style:normal;font-variant:normal;font-weight:normal;font-stretch:normal;font-family:'Fira Sans';-inkscape-font-specification:'Fira Sans';stroke:none;stroke-width:0.161116;stroke-opacity:1"
         x="46.03117"
         y="65.71431"
         id="tspan11">    Legality risk: 0.0024</tspan><tspan
         sodipodi:role="line"
         style="font-style:normal;font-variant:normal;font-weight:normal;font-stretch:normal;font-family:'Fira Sans';-inkscape-font-specification:'Fira Sans';stroke:none;stroke-width:0.161116;stroke-opacity:1"
         x="46.03117"
         y="68.415794"
         id="tspan12">    PR risk: 0.0001</tspan><tspan
         sodipodi:role="line"
         style="font-style:normal;font-variant:normal;font-weight:normal;font-stretch:normal;font-family:'Fira Sans';-inkscape-font-specification:'Fira Sans';stroke:none;stroke-width:0.161116;stroke-opacity:1"
         x="46.03117"
         y="71.117279"
         id="tspan9" /><tspan
         sodipodi:role="line"
         style="font-style:normal;font-variant:normal;font-weight:normal;font-stretch:normal;font-family:'Fira Sans';-inkscape-font-specification:'Fira Sans';stroke:none;stroke-width:0.161116;stroke-opacity:1"
         x="46.03117"
         y="73.644081"
         id="tspan7" /></text>
  </g>
</svg>
